<svg width="58" height="58" viewBox="0 0 58 58" fill="none" xmlns="http://www.w3.org/2000/svg">
<circle cx="29" cy="29" r="29" fill="#3257A4"/>
<mask id="mask0_3021_2" style="mask-type:alpha" maskUnits="userSpaceOnUse" x="0" y="0" width="58" height="58">
<circle cx="29" cy="29" r="28" fill="#3257A4" stroke="#3257A4" stroke-width="2"/>
</mask>
<g mask="url(#mask0_3021_2)">
<g filter="url(#filter0_f_3021_2)">
<circle cx="39" cy="39" r="19" fill="#497AE2"/>
<circle cx="39" cy="39" r="18" stroke="#3257A4" stroke-opacity="0.5" stroke-width="2"/>
</g>
<g filter="url(#filter1_f_3021_2)">
<circle cx="10" cy="11" r="19" fill="#497AE2"/>
<circle cx="10" cy="11" r="18" stroke="#3257A4" stroke-opacity="0.5" stroke-width="2"/>
</g>
</g>
<path d="M30.0607 14.9393C29.4749 14.3536 28.5251 14.3536 27.9393 14.9393L18.3934 24.4853C17.8076 25.0711 17.8076 26.0208 18.3934 26.6066C18.9792 27.1924 19.9289 27.1924 20.5147 26.6066L29 18.1213L37.4853 26.6066C38.0711 27.1924 39.0208 27.1924 39.6066 26.6066C40.1924 26.0208 40.1924 25.0711 39.6066 24.4853L30.0607 14.9393ZM30.5 41L30.5 16L27.5 16L27.5 41L30.5 41Z" fill="white"/>
<defs>
<filter id="filter0_f_3021_2" x="0" y="0" width="78" height="78" filterUnits="userSpaceOnUse" color-interpolation-filters="sRGB">
<feFlood flood-opacity="0" result="BackgroundImageFix"/>
<feBlend mode="normal" in="SourceGraphic" in2="BackgroundImageFix" result="shape"/>
<feGaussianBlur stdDeviation="10" result="effect1_foregroundBlur_3021_2"/>
</filter>
<filter id="filter1_f_3021_2" x="-24" y="-23" width="68" height="68" filterUnits="userSpaceOnUse" color-interpolation-filters="sRGB">
<feFlood flood-opacity="0" result="BackgroundImageFix"/>
<feBlend mode="normal" in="SourceGraphic" in2="BackgroundImageFix" result="shape"/>
<feGaussianBlur stdDeviation="7.5" result="effect1_foregroundBlur_3021_2"/>
</filter>
</defs>
</svg>
