<?xml version="1.0" encoding="UTF-8" standalone="no"?>
<!DOCTYPE svg PUBLIC "-//W3C//DTD SVG 1.1//EN" "http://www.w3.org/Graphics/SVG/1.1/DTD/svg11.dtd">
<svg xmlns="http://www.w3.org/2000/svg" version="1.1" viewBox="0.00 0.00 224.00 69.00">
<path fill="#cb8b24" fill-opacity="0.992" d="
  M 112.24 19.46
  L 118.60 4.57
  A 0.50 0.50 0.0 0 1 119.51 4.54
  L 125.43 16.41
  A 0.47 0.47 0.0 0 0 126.25 16.44
  L 130.55 9.53
  A 0.61 0.61 0.0 0 1 131.43 9.36
  L 133.97 11.25
  A 0.24 0.23 -28.2 0 1 133.84 11.67
  Q 132.51 11.76 131.59 10.62
  A 0.38 0.38 0.0 0 0 130.97 10.66
  L 126.18 18.31
  A 0.51 0.50 48.1 0 1 125.30 18.26
  L 119.52 6.69
  A 0.45 0.44 -46.9 0 0 118.71 6.72
  L 112.18 21.99
  A 0.39 0.39 0.0 0 1 111.46 22.00
  L 102.46 2.25
  A 0.42 0.42 0.0 0 0 101.74 2.18
  Q 96.38 9.64 90.85 17.09
  Q 90.64 17.36 90.28 17.25
  Q 89.73 17.07 90.07 16.60
  L 101.94 0.47
  A 0.44 0.44 0.0 0 1 102.70 0.55
  L 111.38 19.47
  A 0.47 0.47 0.0 0 0 112.24 19.46
  Z"
/>
<path fill="#000000"   transform="
               translate(60 0)
                " d="
  M 10.39 55.74
  L 6.56 61.45
  A 0.91 0.90 -64.2 0 1 5.54 61.81
  Q 3.51 61.17 1.49 61.79
  A 0.62 0.62 0.0 0 1 0.80 60.84
  L 7.33 51.65
  A 1.04 1.04 0.0 0 0 7.34 50.46
  L 1.15 41.40
  Q 0.78 40.86 1.44 40.84
  L 6.26 40.74
  A 1.10 1.09 -16.8 0 1 7.20 41.24
  L 10.34 46.17
  A 0.64 0.63 45.7 0 0 11.41 46.19
  L 14.79 41.18
  A 0.98 0.98 0.0 0 1 15.60 40.75
  L 20.41 40.75
  A 0.44 0.43 17.2 0 1 20.77 41.43
  L 14.72 50.14
  A 1.15 1.15 0.0 0 0 14.72 51.46
  L 21.21 60.87
  A 0.46 0.46 0.0 0 1 20.83 61.59
  L 15.84 61.63
  A 0.94 0.93 72.6 0 1 15.07 61.22
  L 11.41 55.74
  A 0.61 0.61 0.0 0 0 10.39 55.74
  Z"
/>
<path fill="#000000"   transform="
               translate(65 0)
                " d="
  M 52.2889 51.4271
  A 11.25 10.59 0.8 0 1 40.8921 61.8590
  A 11.25 10.59 0.8 0 1 29.7911 51.1129
  A 11.25 10.59 0.8 0 1 41.1879 40.6810
  A 11.25 10.59 0.8 0 1 52.2889 51.4271
  Z
  M 41.3396 57.3922
  A 6.12 5.78 87.1 0 0 46.8026 50.9876
  A 6.12 5.78 87.1 0 0 40.7204 45.1678
  A 6.12 5.78 87.1 0 0 35.2574 51.5724
  A 6.12 5.78 87.1 0 0 41.3396 57.3922
  Z"
/>
<path fill="#000000"    transform="
               translate(70 0)
                " d="
  M 67.74 56.41
  L 67.80 61.04
  A 0.59 0.59 0.0 0 1 67.21 61.64
  L 63.19 61.64
  A 0.69 0.69 0.0 0 1 62.50 60.95
  L 62.50 41.51
  A 0.64 0.63 -3.0 0 1 63.07 40.88
  C 67.27 40.46 75.64 40.04 78.72 43.36
  C 81.36 46.19 81.09 52.05 77.45 54.18
  A 1.01 1.01 0.0 0 0 77.12 55.60
  L 80.67 60.97
  A 0.44 0.44 0.0 0 1 80.31 61.65
  L 75.40 61.61
  A 0.51 0.50 -13.4 0 1 74.95 61.34
  L 72.24 56.31
  Q 71.94 55.75 71.30 55.75
  L 68.40 55.75
  A 0.66 0.65 -0.4 0 0 67.74 56.41
  Z
  M 67.75 45.56
  L 67.73 51.12
  A 0.60 0.60 0.0 0 0 68.33 51.72
  L 71.81 51.73
  A 3.68 3.19 0.2 0 0 75.50 48.55
  L 75.50 48.17
  A 3.68 3.19 0.2 0 0 71.83 44.97
  L 68.35 44.96
  A 0.60 0.60 0.0 0 0 67.75 45.56
  Z"
/>





</svg>
